<?xml version="1.0" encoding="UTF-8" standalone="no"?>
<svg
   xmlns:dc="http://purl.org/dc/elements/1.1/"
   xmlns:cc="http://creativecommons.org/ns#"
   xmlns:rdf="http://www.w3.org/1999/02/22-rdf-syntax-ns#"
   xmlns:svg="http://www.w3.org/2000/svg"
   xmlns="http://www.w3.org/2000/svg"
   xmlns:sodipodi="http://sodipodi.sourceforge.net/DTD/sodipodi-0.dtd"
   xmlns:inkscape="http://www.inkscape.org/namespaces/inkscape"
   style="overflow:visible;opacity:1"
   id="__tmb-512"
   viewBox="0 0 512 200"
   version="1.1"
   sodipodi:docname="logo.svg"
   width="512"
   height="200"
   inkscape:version="1.0.2 (e86c8708, 2021-01-15)">
  <metadata
     id="metadata120">
    <rdf:RDF>
      <cc:Work
         rdf:about="">
        <dc:format>image/svg+xml</dc:format>
        <dc:type
           rdf:resource="http://purl.org/dc/dcmitype/StillImage" />
        <dc:title></dc:title>
      </cc:Work>
    </rdf:RDF>
  </metadata>
  <defs
     id="defs118" />
  <sodipodi:namedview
     pagecolor="#ffffff"
     bordercolor="#666666"
     borderopacity="1"
     objecttolerance="10"
     gridtolerance="10"
     guidetolerance="10"
     inkscape:pageopacity="0"
     inkscape:pageshadow="2"
     inkscape:window-width="1708"
     inkscape:window-height="1201"
     id="namedview116"
     showgrid="false"
     showguides="true"
     inkscape:guide-bbox="true"
     inkscape:zoom="1.3277458"
     inkscape:cx="74.890283"
     inkscape:cy="71.298012"
     inkscape:window-x="0"
     inkscape:window-y="23"
     inkscape:window-maximized="0"
     inkscape:current-layer="_48m7KJ0Oe_lh_Jz204dqb">
    <sodipodi:guide
       position="-47.377769,173.84747"
       orientation="0,-1"
       id="guide124" />
    <sodipodi:guide
       position="-61.780611,27.544919"
       orientation="0,-1"
       id="guide126" />
  </sodipodi:namedview>
  <svg
     width="512"
     height="512"
     viewBox="9.752388 215.58356 295.28082 84.230743"
     data-svgdocument=""
     id="_48m7KJ0Oe_lh_Jz204dqb"
     class="fl-svgdocument"
     x="0"
     y="0"
     style="overflow:visible"
     version="1.1">
    <defs
       id="_75B3DsYDNxdvtqmriGclk"
       transform="matrix(0.8255134224891663, 0, 0, 0.8255134224891663, -66.46025085449219, 201.32864379882812)" />
    <path
       text="rekotlin"
       text-anchor="start"
       font-size="100px"
       letter-spacing="0"
       side="left"
       offset="0"
       dx="0"
       dy="0"
       space="preserve"
       href=""
       font-family="'Lilita One'"
       font-scale="contain"
       x="0"
       y="0"
       fill="#3e454f"
       data-fl-textpath=""
       id="_QGgIRpryAqxLHLlpphUPe"
       d="m 122.64597,171.67775 v 16.62396 q 0,0.41709 -5.42216,0.41709 v 0 q -5.42217,-0.11917 -5.42217,-0.47668 v 0 -19.78192 h -1.60877 q -0.95335,0 -1.5194,-1.16189 -0.56605,-1.16188 -0.56605,-2.88981 v 0 q 0,-6.4351 3.81339,-6.4351 v 0 q 2.68129,0 4.46882,1.63857 1.78752,1.63856 1.78752,3.724 v 0 q 1.25127,-2.44294 3.36651,-3.90275 2.11524,-1.45982 4.31985,-1.45982 v 0 q 3.45589,0 4.1709,1.78753 v 0 q 0.17875,0.47667 0.17875,1.40023 0,0.92354 -0.56605,3.30692 -0.56605,2.38336 -1.16189,3.45586 -0.59584,1.07253 -0.71501,1.07253 -0.11917,0 -1.10231,-0.44689 -0.98314,-0.44687 -1.75773,-0.44687 v 0 q -2.2642,0 -2.2642,3.57504 z m 33.06923,15.07477 v 0 q -3.75381,2.20461 -9.65264,2.20461 -5.89884,0 -9.95056,-4.02193 -4.05173,-4.02191 -4.05173,-11.14222 0,-7.12029 3.90277,-11.46993 3.90276,-4.34965 9.86118,-4.34965 5.95842,0 9.20576,3.0388 3.24734,3.03878 3.24734,7.38843 v 0 q 0,9.65262 -11.08266,9.65262 v 0 h -4.11131 q 0,1.78751 0.98314,2.47273 0.98314,0.68522 2.88983,0.68522 v 0 q 4.17089,0 7.9247,-1.90669 v 0 q 0.0596,-0.0596 0.53626,0.83418 v 0 q 1.43002,2.56212 1.43002,4.31984 0,1.75774 -1.1321,2.29399 z m -7.44803,-17.2198 v 0 q 0,-2.50253 -2.44295,-2.50253 v 0 q -1.1321,0 -1.93649,0.68522 -0.80438,0.68522 -0.80438,1.99607 v 0 1.8471 h 3.21754 q 1.96628,0 1.96628,-2.02586 z m 13.88312,18.47107 V 147.1291 q 0,-0.95335 5.42216,-0.95335 v 0 q 5.06466,0.17876 5.06466,0.7746 v 0 22.88029 l 5.89883,-10.90389 q 0.41709,-0.89376 5.06466,-0.89376 4.64757,0 5.95842,0.59584 v 0 l -7.74595,12.63183 8.93763,16.74313 q 0.11917,0.23833 -2.2344,0.3873 -2.35358,0.14896 -3.90277,0.14896 v 0 q -5.72008,0 -6.13717,-0.53626 v 0 l -5.89884,-13.22767 v 13.16808 q 0,0.7746 -5.21361,0.7746 -5.21362,0 -5.21362,-0.71501 z m 32.74151,-3.15795 q -3.72401,-4.11131 -3.72401,-11.38057 0,-7.26926 3.72401,-11.38057 3.72402,-4.1113 10.03994,-4.1113 6.31593,0 10.01015,4.1113 3.69422,4.11131 3.69422,11.38057 0,7.26926 -3.69422,11.38057 -3.69422,4.11129 -10.01015,4.11129 -6.31592,0 -10.03994,-4.11129 z m 10.06973,-16.9219 q -3.3665,0 -3.3665,5.48175 0,5.48174 3.3665,5.48174 3.36651,0 3.36651,-5.48174 0,-5.48175 -3.36651,-5.48175 z m 31.60942,-1.01292 v 21.09277 q 0,0.71501 -5.00507,0.71501 v 0 q -5.95842,-0.23834 -5.95842,-0.7746 v 0 -21.09276 h -3.0388 q -1.19168,0 -1.19168,-4.11131 v 0 q 0,-1.07251 0.20854,-2.62169 0.20855,-1.54919 0.86397,-1.54919 v 0 h 3.15797 v -5.2434 q 0,-1.19169 5.03486,-1.19169 5.03487,0 5.03487,0.95335 v 0 3.81339 l 0.0596,1.66835 h 5.06466 q 1.01293,0 1.01293,4.17088 0,4.17089 -1.01293,4.17089 v 0 z m 19.06694,-19.8415 v 40.8151 q 0,0.53626 -6.07759,0.53626 v 0 q -4.76673,-0.0596 -4.76673,-0.47668 v 0 -40.57676 q 0,-0.89376 5.77966,-0.89376 v 0 q 5.06466,0.17876 5.06466,0.59584 z m 16.26649,11.67848 v 29.25579 q 0,0.47667 -5.45196,0.47667 -5.45195,0 -5.45195,-0.41709 v 0 -29.25579 q 0,-0.41708 5.45195,-0.41708 5.45196,0 5.45196,0.3575 z m 0,-12.27432 v 8.75886 q 0,0.41709 -5.45196,0.41709 -5.45195,0 -5.45195,-0.35751 v 0 -8.58011 q 0,-0.59584 5.45195,-0.59584 5.45196,0 5.45196,0.35751 z m 17.81567,22.40362 v 19.12649 q 0,0.41709 -4.29006,0.41709 v 0 q -5.95842,-0.17876 -5.95842,-0.65543 v 0 -19.30525 h -1.54919 q -1.54919,0 -2.02586,-2.6217 v 0 q -0.11917,-0.77459 -0.11917,-1.54918 v 0 q 0,-1.8471 0.71501,-3.69422 v 0 q 1.07251,-2.6217 3.33671,-2.6217 2.2642,0 4.05173,1.07252 1.78752,1.07252 2.38337,2.14502 v 0 q 3.7538,-3.21754 8.93763,-3.21754 5.18382,0 7.5076,2.80046 2.32379,2.80045 2.32379,9.17595 v 0 17.87523 q 0,0.71501 -5.09445,0.71501 -5.09445,0 -5.09445,-0.71501 v 0 -17.21981 q 0,-2.9792 -2.08545,-2.9792 v 0 q -0.59584,0 -1.66835,0.50647 -1.07252,0.50646 -1.37044,0.7448 z"
       style="stroke-width:0.595841" />
    <ellipse
       id="_3UuPQS-sKPLJRYZTFnykc"
       cx="51.867756"
       cy="168.42557"
       stroke="none"
       fill="#00b389"
       style="stroke-width:0.476498"
       rx="42.115368"
       ry="42.115292" />
    <path
       id="_PQsRWElFhi8QJEX9djcOl"
       d="m 51.863595,205.62423 c 20.644373,0 37.378391,-16.73398 37.378391,-37.37833 0,-20.64433 -16.734018,-37.37832 -37.378391,-37.37832 -20.644372,0 -37.37839,16.73399 -37.37839,37.37832 0,20.64435 16.734018,37.37833 37.37839,37.37833 z m 0,-71.88139 c 19.025601,0 34.50313,15.4775 34.50313,34.50306 0,4.03687 -0.733191,7.89834 -2.012682,11.50104 H 51.863595 c -6.342825,0 -11.501043,-5.15821 -11.501043,-11.50104 0,-6.3428 5.158218,-11.50101 11.501043,-11.50101 6.342826,0 11.501044,5.15821 11.501044,11.50101 H 66.2399 c 0,-7.92707 -6.44921,-14.37627 -14.376305,-14.37627 -7.927094,0 -14.376304,6.4492 -14.376304,14.37627 0,7.92709 6.44921,14.37629 14.376304,14.37629 h 31.325967 c -1.457757,3.16565 -3.378431,6.06391 -5.681515,8.62576 H 51.863595 c -12.682775,0 -23.002086,-10.31928 -23.002086,-23.00205 0,-12.68274 10.319311,-23.00204 23.002086,-23.00204 12.682776,0 23.002087,10.3193 23.002087,23.00204 h 2.875261 c 0,-14.26701 -11.607428,-25.87728 -25.877348,-25.87728 -14.269919,0 -25.877347,11.61027 -25.877347,25.87728 0,14.26703 11.607428,25.87731 25.877347,25.87731 h 22.746189 c -6.078301,5.35084 -14.028398,8.62577 -22.746189,8.62577 -19.0256,0 -34.503129,-15.47751 -34.503129,-34.50308 0,-19.02556 15.477529,-34.50306 34.503129,-34.50306 z"
       stroke="none"
       fill="#ffffff"
       style="stroke-width:2.87525" />
  </svg>
</svg>
