<?xml version="1.0" encoding="UTF-8" standalone="no"?>
<svg
   xmlns:dc="http://purl.org/dc/elements/1.1/"
   xmlns:cc="http://creativecommons.org/ns#"
   xmlns:rdf="http://www.w3.org/1999/02/22-rdf-syntax-ns#"
   xmlns:svg="http://www.w3.org/2000/svg"
   xmlns="http://www.w3.org/2000/svg"
   xmlns:sodipodi="http://sodipodi.sourceforge.net/DTD/sodipodi-0.dtd"
   xmlns:inkscape="http://www.inkscape.org/namespaces/inkscape"
   style="opacity: 1; transition: opacity 0.3s ease 0s; overflow: visible;"
   id="__tmb-512"
   viewBox="0 0 512 512"
   version="1.1"
   sodipodi:docname="favicon.svg"
   inkscape:version="1.0.2 (e86c8708, 2021-01-15)">
  <metadata
     id="metadata71">
    <rdf:RDF>
      <cc:Work
         rdf:about="">
        <dc:format>image/svg+xml</dc:format>
        <dc:type
           rdf:resource="http://purl.org/dc/dcmitype/StillImage" />
      </cc:Work>
    </rdf:RDF>
  </metadata>
  <defs
     id="defs69" />
  <sodipodi:namedview
     pagecolor="#ffffff"
     bordercolor="#666666"
     borderopacity="1"
     objecttolerance="10"
     gridtolerance="10"
     guidetolerance="10"
     inkscape:pageopacity="0"
     inkscape:pageshadow="2"
     inkscape:window-width="1511"
     inkscape:window-height="1015"
     id="namedview67"
     showgrid="false"
     inkscape:zoom="1.4355469"
     inkscape:cx="256"
     inkscape:cy="256"
     inkscape:window-x="0"
     inkscape:window-y="23"
     inkscape:window-maximized="0"
     inkscape:current-layer="_48m7KJ0Oe_lh_Jz204dqb" />
  <svg
     width="128"
     height="128"
     data-svgdocument=""
     id="_48m7KJ0Oe_lh_Jz204dqb"
     class="fl-svgdocument"
     x="0"
     y="0"
     style="overflow: visible;"
     version="1.1">
    <circle
       id="_3UuPQS-sKPLJRYZTFnykc"
       cx="257.36435"
       cy="257.69891"
       r="246.91536"
       stroke="none"
       fill="#00b389"
       style="stroke-width:2.79364" />
    <path
       id="_PQsRWElFhi8QJEX9djcOl"
       d="m 257.33997,475.78901 c 121.0345,0 219.14325,-98.10876 219.14325,-219.14327 0,-121.03451 -98.10875,-219.143279 -219.14325,-219.143279 -121.03452,0 -219.143278,98.108769 -219.143278,219.143279 0,121.03451 98.108758,219.14327 219.143278,219.14327 z m 0,-421.429371 c 111.54391,0 202.28609,90.742181 202.28609,202.286101 0,23.66747 -4.29859,46.30666 -11.80003,67.4287 H 257.33997 c -37.18694,0 -67.42871,-30.24177 -67.42871,-67.4287 0,-37.18692 30.24177,-67.42869 67.42871,-67.42869 37.18693,0 67.4287,30.24177 67.4287,67.42869 h 16.85716 c 0,-46.47522 -37.81063,-84.28587 -84.28586,-84.28587 -46.47523,0 -84.28587,37.81065 -84.28587,84.28587 0,46.47523 37.81064,84.28588 84.28587,84.28588 h 183.65891 c -8.54659,18.55974 -19.80719,35.55177 -33.30978,50.57152 H 257.33997 c -74.357,0 -134.85741,-60.50041 -134.85741,-134.8574 0,-74.357 60.50041,-134.8574 134.85741,-134.8574 74.35699,0 134.85738,60.5004 134.85738,134.8574 h 16.85718 c 0,-83.6453 -68.05242,-151.71457 -151.71456,-151.71457 -83.66217,0 -151.71457,68.06927 -151.71457,151.71457 0,83.6453 68.0524,151.71458 151.71457,151.71458 h 133.3571 c -35.63608,31.37119 -82.24616,50.57151 -133.3571,50.57151 -111.54393,0 -202.2861,-90.74217 -202.2861,-202.28609 0,-111.54392 90.74217,-202.286101 202.2861,-202.286101 z"
       stroke="none"
       fill="#ffffff"
       style="stroke-width:16.8572" />
  </svg>
</svg>
